<?xml version="1.0" standalone="no"?>
<!DOCTYPE svg PUBLIC "-//W3C//DTD SVG 20010904//EN"
 "http://www.w3.org/TR/2001/REC-SVG-20010904/DTD/svg10.dtd">
<svg version="1.0" xmlns="http://www.w3.org/2000/svg"
 width="256.000000pt" height="256.000000pt" viewBox="0 0 256.000000 256.000000"
 preserveAspectRatio="xMidYMid meet">

<g transform="translate(0.000000,256.000000) scale(0.100000,-0.100000)"
fill="#000000" stroke="none">
<path d="M320 2387 c-49 -16 -133 -102 -148 -153 -17 -59 -17 -1849 0 -1908
16 -55 99 -138 154 -154 59 -17 1849 -17 1908 0 55 16 138 99 154 154 17 59
17 1849 0 1908 -16 55 -99 138 -154 154 -56 16 -1861 15 -1914 -1z m1890 -125
c74 -36 70 19 70 -982 0 -832 -1 -897 -18 -930 -36 -74 19 -70 -982 -70 -1001
0 -946 -4 -982 70 -17 33 -18 98 -18 930 0 832 1 897 18 930 36 74 -19 70 982
70 832 0 897 -1 930 -18z"/>
<path d="M1457 963 c-4 -3 -7 -17 -7 -30 0 -21 5 -23 45 -23 l46 0 -3 -142 -3
-143 -42 -3 c-38 -3 -43 -6 -43 -28 l0 -24 120 0 120 0 0 25 c0 23 -4 25 -40
25 l-40 0 0 175 0 175 -73 0 c-41 0 -77 -3 -80 -7z"/>
<path d="M903 938 c-29 -8 -33 -13 -33 -43 0 -34 -1 -35 -40 -35 -38 0 -40 -2
-40 -30 0 -28 2 -30 40 -30 l40 0 0 -89 c0 -73 3 -93 20 -113 23 -29 66 -41
121 -32 34 6 39 10 39 34 0 27 -2 28 -40 23 -60 -8 -70 5 -70 98 l0 79 55 0
c54 0 55 0 55 30 0 30 -1 30 -54 30 l-55 0 -3 43 -3 43 -32 -8z"/>
<path d="M585 846 c-54 -24 -78 -60 -83 -125 -7 -101 39 -152 138 -153 73 0
90 8 90 43 0 26 -3 29 -21 24 -12 -4 -37 -7 -57 -7 -82 0 -111 107 -43 159 19
15 61 16 95 3 25 -9 26 -8 26 24 0 26 -5 35 -22 40 -37 10 -91 6 -123 -8z"/>
<path d="M1140 715 l0 -145 35 0 35 0 0 93 c0 86 2 95 24 116 33 31 70 25 74
-11 3 -25 8 -28 38 -28 30 0 34 3 34 25 0 33 -25 81 -45 89 -28 10 -65 7 -96
-9 -26 -14 -30 -14 -35 0 -4 9 -18 15 -35 15 l-29 0 0 -145z"/>
</g>
</svg>
