<?xml version="1.0" standalone="no"?>
<!DOCTYPE svg PUBLIC "-//W3C//DTD SVG 20010904//EN"
 "http://www.w3.org/TR/2001/REC-SVG-20010904/DTD/svg10.dtd">
<svg version="1.0" xmlns="http://www.w3.org/2000/svg"
 width="250.000000pt" height="250.000000pt" viewBox="0 0 250.000000 250.000000"
 preserveAspectRatio="xMidYMid meet">

<g transform="translate(0.000000,250.000000) scale(0.100000,-0.100000)"
fill="#000000" stroke="none">
<path d="M250 1875 l0 -525 25 0 25 0 0 -150 0 -150 25 0 c24 0 25 -2 25 -75
0 -73 1 -75 25 -75 23 0 25 -3 25 -50 0 -47 2 -50 25 -50 23 0 25 -3 25 -50 0
-47 2 -50 25 -50 20 0 25 -5 25 -25 0 -20 5 -25 25 -25 23 0 25 -3 25 -50 0
-47 2 -50 25 -50 20 0 25 -5 25 -25 0 -20 5 -25 25 -25 20 0 25 -5 25 -25 0
-20 5 -25 25 -25 20 0 25 -5 25 -25 0 -23 3 -25 50 -25 47 0 50 -2 50 -25 0
-20 5 -25 25 -25 20 0 25 -5 25 -25 0 -20 5 -25 25 -25 20 0 25 -5 25 -25 0
-20 5 -25 25 -25 20 0 25 -5 25 -25 0 -23 3 -25 50 -25 47 0 50 -2 50 -25 0
-20 5 -25 25 -25 20 0 25 -5 25 -25 l0 -25 150 0 150 0 0 25 c0 20 5 25 25 25
20 0 25 5 25 25 0 23 3 25 50 25 47 0 50 2 50 25 0 20 5 25 25 25 20 0 25 5
25 25 0 20 5 25 25 25 20 0 25 5 25 25 0 23 3 25 50 25 47 0 50 2 50 25 0 20
5 25 25 25 20 0 25 5 25 25 0 20 5 25 25 25 20 0 25 5 25 25 0 20 5 25 25 25
20 0 25 5 25 25 0 20 5 25 25 25 23 0 25 3 25 50 0 47 2 50 25 50 20 0 25 5
25 25 0 20 5 25 25 25 23 0 25 3 25 50 0 47 2 50 25 50 23 0 25 3 25 50 0 47
2 50 25 50 24 0 25 2 25 75 0 73 1 75 25 75 l25 0 0 125 0 125 25 0 25 0 0
550 0 550 -1000 0 -1000 0 0 -525z m1850 450 c0 -20 5 -25 25 -25 l25 0 0
-500 0 -500 -25 0 -25 0 0 -125 0 -125 -25 0 c-24 0 -25 -2 -25 -75 0 -73 -1
-75 -25 -75 -23 0 -25 -3 -25 -50 0 -47 -2 -50 -25 -50 -20 0 -25 -5 -25 -25
0 -20 -5 -25 -25 -25 -23 0 -25 -3 -25 -50 0 -47 -2 -50 -25 -50 -20 0 -25 -5
-25 -25 0 -20 -5 -25 -25 -25 -20 0 -25 -5 -25 -25 0 -20 -5 -25 -25 -25 -20
0 -25 -5 -25 -25 0 -20 -5 -25 -25 -25 -20 0 -25 -5 -25 -25 0 -20 -5 -25 -25
-25 -20 0 -25 -5 -25 -25 0 -23 -3 -25 -50 -25 -47 0 -50 -2 -50 -25 0 -20 -5
-25 -25 -25 -20 0 -25 -5 -25 -25 0 -20 -5 -25 -25 -25 -20 0 -25 -5 -25 -25
0 -23 -3 -25 -50 -25 -47 0 -50 -2 -50 -25 l0 -25 -100 0 -100 0 0 25 c0 23
-3 25 -50 25 -47 0 -50 2 -50 25 0 20 -5 25 -25 25 -20 0 -25 5 -25 25 0 20
-5 25 -25 25 -20 0 -25 5 -25 25 0 20 -5 25 -25 25 -20 0 -25 5 -25 25 0 23
-3 25 -50 25 -47 0 -50 2 -50 25 0 20 -5 25 -25 25 -20 0 -25 5 -25 25 0 20
-5 25 -25 25 -20 0 -25 5 -25 25 0 20 -5 25 -25 25 -20 0 -25 5 -25 25 0 20
-5 25 -25 25 -23 0 -25 3 -25 50 0 47 -2 50 -25 50 -20 0 -25 5 -25 25 0 20
-5 25 -25 25 -24 0 -25 2 -25 75 0 73 -1 75 -25 75 -24 0 -25 2 -25 75 0 73
-1 75 -25 75 l-25 0 0 125 0 125 -25 0 -25 0 0 475 0 475 25 0 c20 0 25 5 25
25 l0 25 850 0 850 0 0 -25z"/>
<path d="M700 2025 c0 -24 2 -25 75 -25 73 0 75 -1 75 -25 0 -20 5 -25 25 -25
23 0 25 -3 25 -50 0 -47 2 -50 25 -50 24 0 25 -2 25 -75 l0 -75 50 0 50 0 0
75 c0 73 -1 75 -25 75 -23 0 -25 3 -25 50 0 47 -2 50 -25 50 -20 0 -25 5 -25
25 0 20 -5 25 -25 25 -20 0 -25 5 -25 25 l0 25 -100 0 -100 0 0 -25z"/>
<path d="M1600 2025 c0 -20 -5 -25 -25 -25 -20 0 -25 -5 -25 -25 0 -20 -5 -25
-25 -25 -23 0 -25 -3 -25 -50 0 -47 -2 -50 -25 -50 -24 0 -25 -2 -25 -75 l0
-75 50 0 50 0 0 75 c0 73 1 75 25 75 23 0 25 3 25 50 0 47 2 50 25 50 20 0 25
5 25 25 0 24 2 25 75 25 73 0 75 1 75 25 l0 25 -100 0 -100 0 0 -25z"/>
<path d="M550 1975 c0 -23 3 -25 50 -25 47 0 50 2 50 25 0 23 -3 25 -50 25
-47 0 -50 -2 -50 -25z"/>
<path d="M1850 1975 c0 -23 3 -25 50 -25 47 0 50 2 50 25 0 23 -3 25 -50 25
-47 0 -50 -2 -50 -25z"/>
<path d="M1150 1775 c0 -20 -5 -25 -25 -25 -24 0 -25 -2 -25 -75 0 -73 -1 -75
-25 -75 -20 0 -25 5 -25 25 l0 25 -175 0 -175 0 0 -25 c0 -20 5 -25 25 -25 20
0 25 -5 25 -25 0 -24 2 -25 75 -25 73 0 75 -1 75 -25 0 -20 5 -25 25 -25 24 0
25 -2 25 -75 0 -73 1 -75 25 -75 20 0 25 -5 25 -25 0 -23 3 -25 50 -25 l50 0
0 -100 0 -100 25 0 c20 0 25 -5 25 -25 0 -20 5 -25 25 -25 20 0 25 -5 25 -25
0 -20 -5 -25 -25 -25 -23 0 -25 -3 -25 -50 l0 -50 100 0 100 0 0 50 c0 47 -2
50 -25 50 -20 0 -25 5 -25 25 0 23 3 25 50 25 l50 0 0 125 0 125 50 0 c47 0
50 2 50 25 0 20 5 25 25 25 l25 0 0 100 0 100 100 0 100 0 0 25 c0 20 5 25 25
25 20 0 25 5 25 25 0 20 5 25 25 25 20 0 25 5 25 25 0 20 -5 25 -25 25 -20 0
-25 -5 -25 -25 l0 -25 -175 0 -175 0 0 -25 c0 -20 -5 -25 -25 -25 -24 0 -25 2
-25 75 0 73 -1 75 -25 75 -20 0 -25 5 -25 25 l0 25 -100 0 -100 0 0 -25z m0
-200 c0 -20 -5 -25 -25 -25 -20 0 -25 5 -25 25 0 20 5 25 25 25 20 0 25 -5 25
-25z m250 -25 c0 -47 -2 -50 -25 -50 -23 0 -25 3 -25 50 0 47 2 50 25 50 23 0
25 -3 25 -50z m-350 -75 c0 -20 5 -25 25 -25 20 0 25 -5 25 -25 0 -23 -3 -25
-50 -25 l-50 0 0 50 c0 47 2 50 25 50 20 0 25 -5 25 -25z m450 -25 c0 -47 -2
-50 -25 -50 -23 0 -25 3 -25 50 0 47 2 50 25 50 23 0 25 -3 25 -50z m-200
-475 c0 -23 -3 -25 -50 -25 -47 0 -50 2 -50 25 0 23 3 25 50 25 47 0 50 -2 50
-25z"/>
<path d="M1200 775 l0 -75 50 0 50 0 0 75 0 75 -50 0 -50 0 0 -75z"/>
</g>
</svg>
