<?xml version="1.0" standalone="no"?>
<!DOCTYPE svg PUBLIC "-//W3C//DTD SVG 20010904//EN"
 "http://www.w3.org/TR/2001/REC-SVG-20010904/DTD/svg10.dtd">
<svg version="1.0" xmlns="http://www.w3.org/2000/svg"
 width="176.000000pt" height="176.000000pt" viewBox="0 0 176.000000 176.000000"
 preserveAspectRatio="xMidYMid meet">

<g transform="translate(0.000000,176.000000) scale(0.100000,-0.100000)"
fill="#000000" stroke="none">
<path d="M210 1585 c0 -12 20 -15 116 -15 106 0 116 -2 121 -19 3 -11 15 -21
27 -23 17 -2 21 -11 24 -50 3 -39 6 -47 25 -50 20 -3 22 -10 25 -75 3 -65 5
-72 25 -75 14 -2 23 -11 25 -25 3 -19 10 -23 38 -23 33 0 34 1 34 39 0 30 -4
40 -20 44 -18 5 -20 14 -20 75 0 66 -2 71 -22 74 -15 2 -24 11 -26 26 -2 14
-10 22 -24 22 -11 0 -22 8 -25 19 -3 11 -15 21 -27 23 -13 2 -22 11 -24 26 -3
22 -6 22 -138 22 -112 0 -134 -2 -134 -15z"/>
<path d="M1278 1578 c-2 -15 -11 -24 -24 -26 -12 -2 -24 -12 -27 -23 -3 -11
-14 -19 -26 -19 -17 0 -20 -7 -23 -47 -3 -41 -6 -48 -25 -51 -20 -3 -22 -10
-25 -75 l-3 -72 -50 0 c-44 0 -50 3 -53 22 -2 14 -11 23 -25 25 -14 2 -23 11
-25 24 -2 16 -12 24 -36 28 -48 9 -96 -3 -96 -24 0 -13 -12 -19 -49 -24 l-50
-7 -3 -47 c-3 -40 -6 -47 -25 -50 -30 -4 -30 -30 -1 -34 15 -2 24 -11 26 -25
2 -14 11 -23 25 -25 19 -3 22 -9 22 -53 0 -49 -1 -50 -30 -50 -28 0 -30 3 -33
42 -3 34 -7 42 -25 45 -14 2 -23 11 -25 25 -3 22 -5 23 -195 25 -191 3 -192 3
-195 26 -6 40 -32 26 -32 -17 0 -39 0 -40 45 -47 28 -4 45 -11 45 -20 0 -10
24 -14 103 -16 l102 -3 3 -97 c2 -89 5 -98 22 -98 13 0 20 -8 22 -27 2 -22 9
-29 30 -31 20 -2 28 -9 28 -23 0 -14 9 -20 40 -25 40 -7 40 -7 40 -53 0 -25 3
-76 6 -113 6 -58 10 -67 28 -70 13 -2 22 -12 24 -25 3 -22 8 -23 98 -23 85 0
94 2 94 19 0 15 10 20 45 25 l45 7 2 47 c1 26 0 78 -1 115 -3 62 -1 69 17 74
12 3 22 15 24 27 2 13 11 22 25 24 14 2 23 11 25 25 2 14 11 23 25 25 19 3 22
11 25 50 3 40 6 47 26 50 19 3 22 9 22 46 l0 43 46 7 c26 3 70 6 99 6 44 0 54
3 58 20 3 12 14 20 26 20 12 0 21 6 21 15 0 13 -28 15 -195 15 -188 0 -195 -1
-195 -20 0 -11 -6 -20 -14 -20 -8 0 -16 -10 -18 -22 -2 -15 -11 -24 -25 -26
-19 -3 -22 -11 -25 -50 -3 -43 -5 -47 -30 -50 -28 -3 -28 -3 -28 57 0 54 2 61
19 61 16 0 20 8 23 43 2 34 7 43 25 45 14 2 23 11 25 25 3 20 10 22 70 25 l67
3 3 97 c3 91 4 97 25 100 19 3 22 11 25 50 3 39 7 48 24 50 12 2 24 12 27 23
5 17 15 19 121 19 96 0 116 3 116 15 0 13 -22 15 -134 15 -132 0 -135 0 -138
-22z m-630 -564 c2 -12 12 -24 23 -27 16 -4 20 -12 17 -34 -3 -27 -6 -28 -53
-28 l-50 0 -3 44 c-4 60 2 73 35 69 20 -2 29 -9 31 -24z m530 -31 c3 -50 2
-52 -25 -55 -22 -2 -29 -9 -31 -30 -2 -20 -9 -28 -22 -28 -27 0 -32 14 -24 65
5 35 10 45 25 45 15 0 19 7 19 31 0 27 3 30 28 27 25 -3 27 -7 30 -55z"/>
<path d="M790 391 l0 -38 63 -6 c34 -3 74 -3 90 0 24 5 27 10 27 44 l0 39 -90
0 -90 0 0 -39z"/>
<path d="M835 236 c-4 -25 -4 -63 0 -85 7 -40 8 -41 45 -41 l39 0 3 68 c3 61
5 67 26 70 12 2 22 10 22 18 0 11 -15 14 -64 14 l-65 0 -6 -44z"/>
</g>
</svg>
